HIERARCHY
ROOT joint_Root
{
	OFFSET 0.0 0.0 0.0
	CHANNELS 6 Xposition Yposition Zposition Zrotation Xrotation Yrotation 
	JOINT Hips
	{
		OFFSET 4.5925 91.4895 -427.239
		CHANNELS 6 Xposition Yposition Zposition Zrotation Xrotation Yrotation 
		JOINT Spine
		{
			OFFSET 15.7357 0.0 0.0
			CHANNELS 6 Xposition Yposition Zposition Zrotation Xrotation Yrotation 
			JOINT Chest
			{
				OFFSET 8.98455 -0.406207 0.0
				CHANNELS 6 Xposition Yposition Zposition Zrotation Xrotation Yrotation 
				JOINT Neck
				{
					OFFSET 16.3773 0.0 0.0
					CHANNELS 6 Xposition Yposition Zposition Zrotation Xrotation Yrotation 
					JOINT Head
					{
						OFFSET 6.45672 0.0 0.0
						CHANNELS 6 Xposition Yposition Zposition Zrotation Xrotation Yrotation 
						End Site
						{
							OFFSET 0.0 0.0 0.0
						}
					}
				}
				JOINT Shoulder_L
				{
					OFFSET 12.9942 -0.242716 4.98039
					CHANNELS 6 Xposition Yposition Zposition Zrotation Xrotation Yrotation 
					JOINT UpperArm_L
					{
						OFFSET 5.34809 0.0 0.0
						CHANNELS 6 Xposition Yposition Zposition Zrotation Xrotation Yrotation 
						JOINT LowerArm_L
						{
							OFFSET 24.3286 1.87007e-05 0.0
							CHANNELS 6 Xposition Yposition Zposition Zrotation Xrotation Yrotation 
							JOINT Hand_L
							{
								OFFSET 22.2916 0.0 0.0
								CHANNELS 6 Xposition Yposition Zposition Zrotation Xrotation Yrotation 
								End Site
								{
									OFFSET 0.0 0.0 0.0
								}
							}
						}
					}
				}
				JOINT Shoulder_R
				{
					OFFSET 12.9945 -0.242716 -4.98039
					CHANNELS 6 Xposition Yposition Zposition Zrotation Xrotation Yrotation 
					JOINT UpperArm_R
					{
						OFFSET -5.34813 0.0 0.0
						CHANNELS 6 Xposition Yposition Zposition Zrotation Xrotation Yrotation 
						JOINT LowerArm_R
						{
							OFFSET -24.3289 0.000322201 0.0
							CHANNELS 6 Xposition Yposition Zposition Zrotation Xrotation Yrotation 
							JOINT Hand_R
							{
								OFFSET -22.2915 -0.000108084 0.0
								CHANNELS 6 Xposition Yposition Zposition Zrotation Xrotation Yrotation 
								End Site
								{
									OFFSET 0.0 0.0 0.0
								}
							}
						}
					}
				}
			}
		}
		JOINT UpperLeg_L
		{
			OFFSET -2.19248 -6.46944 0.0
			CHANNELS 6 Xposition Yposition Zposition Zrotation Xrotation Yrotation 
			JOINT LowerLeg_L
			{
				OFFSET 39.0811 0.0 -1.23785e-05
				CHANNELS 6 Xposition Yposition Zposition Zrotation Xrotation Yrotation 
				JOINT Foot_L
				{
					OFFSET 40.9854 0.0 -1.26872e-05
					CHANNELS 6 Xposition Yposition Zposition Zrotation Xrotation Yrotation 
					JOINT Toes_L
					{
						OFFSET 11.7543 0.0 0.0
						CHANNELS 6 Xposition Yposition Zposition Zrotation Xrotation Yrotation 
						End Site
						{
							OFFSET 0.0 0.0 0.0
						}
					}
				}
			}
		}
		JOINT UpperLeg_R
		{
			OFFSET -2.19251 6.46944 0.0
			CHANNELS 6 Xposition Yposition Zposition Zrotation Xrotation Yrotation 
			JOINT LowerLeg_R
			{
				OFFSET -39.0811 -0.00228153 -0.0401928
				CHANNELS 6 Xposition Yposition Zposition Zrotation Xrotation Yrotation 
				JOINT Foot_R
				{
					OFFSET -40.9854 0.0 0.0
					CHANNELS 6 Xposition Yposition Zposition Zrotation Xrotation Yrotation 
					JOINT Toes_R
					{
						OFFSET -11.7543 0.0 0.0
						CHANNELS 6 Xposition Yposition Zposition Zrotation Xrotation Yrotation 
						End Site
						{
							OFFSET 0.0 0.0 0.0
						}
					}
				}
			}
		}
	}
}
MOTION
Frames:	8
Frame Time:	0.0333333
0.000000 0.000000 0.000000 0.000000 0.000000 -0.000000 -0.449437 83.801300 1.446670 88.877700 -6.531180 13.426800 15.735700 0.000005 -0.000001 88.341000 79.559500 -88.605800 8.984550 -0.406207 -0.000000 13.105400 -0.610643 -0.459488 16.377300 -0.000001 -0.000001 -0.668295 -2.401190 0.385506 6.456720 -0.000001 -0.000000 -6.497240 -1.364490 -0.821629 12.994200 -0.242716 4.980390 -91.345200 3.345420 -68.077700 5.348090 -0.000007 -0.000001 -76.632400 19.917200 5.975350 24.328600 0.000019 0.000005 4.382270 17.338000 -14.418900 22.291600 -0.000001 0.000005 19.616000 4.992870 7.467640 12.994500 -0.242716 -4.980390 87.342300 10.186200 -75.292400 -5.348130 -0.000001 -0.000004 -67.737300 12.033200 -5.760700 -24.328900 0.000322 -0.000009 -2.152230 -15.675100 -7.901480 -22.291500 -0.000108 -0.000004 9.727490 5.170060 3.500650 -2.192480 -6.469440 -0.000000 -172.238000 -13.852100 -7.238780 39.081100 -0.000007 -0.000012 -0.488592 0.320098 56.770500 40.985400 -0.000006 -0.000013 0.473794 3.914150 -85.328300 11.754300 -0.000000 0.000003 -0.000419 -0.003437 -16.704100 -2.192510 6.469440 -0.000001 175.953000 12.520300 170.990000 -39.081100 -0.002282 -0.040193 0.061783 -0.037435 57.414800 -40.985400 0.000008 0.000006 5.305140 4.791690 -83.866200 -11.754300 -0.000006 -0.000006 -0.887266 -1.093620 -17.107600
0.000000 0.000000 0.000000 0.000000 0.000000 -0.000000 -0.559356 85.605200 1.684040 88.760300 -5.442490 11.620800 15.735700 0.000005 -0.000001 87.140000 80.880900 -87.495100 8.984550 -0.406207 -0.000000 10.447700 -0.912109 -0.626416 16.377300 -0.000001 -0.000001 0.310899 -2.375620 0.347441 6.456720 -0.000001 -0.000000 -4.914810 -1.509460 -0.600249 12.994200 -0.242716 4.980390 -90.586300 1.403250 -67.312600 5.348090 -0.000007 -0.000001 -75.949900 10.141800 4.563740 24.328600 0.000019 0.000005 3.491200 14.420000 -13.766000 22.291600 -0.000001 0.000005 19.074600 4.986230 7.610760 12.994500 -0.242716 -4.980390 87.605000 8.514080 -74.223100 -5.348130 -0.000001 -0.000004 -66.204600 3.117710 -7.135340 -24.328900 0.000322 -0.000009 -0.430607 -10.799400 -2.277380 -22.291500 -0.000108 -0.000004 5.214260 5.018290 6.950710 -2.192480 -6.469440 -0.000000 -172.336000 -14.275800 -6.365410 39.081100 -0.000007 -0.000012 -0.406965 0.327404 51.184100 40.985400 -0.000006 -0.000013 0.817595 5.236120 -82.476500 11.754300 -0.000000 0.000003 -0.000356 -0.002999 -16.688600 -2.192510 6.469440 -0.000001 176.208000 13.935900 172.168000 -39.081100 -0.002282 -0.040193 0.054447 -0.040209 51.860200 -40.985400 0.000008 0.000006 5.295240 5.267760 -81.023100 -11.754300 -0.000006 -0.000006 -0.923562 -1.134860 -17.338100
0.000000 0.000000 0.000000 0.000000 0.000000 -0.000000 -0.579143 87.912600 1.824270 88.849700 -4.182520 9.164380 15.735700 0.000005 -0.000001 86.997900 82.743900 -87.413300 8.984550 -0.406207 -0.000000 6.724180 -0.753836 -0.785653 16.377300 -0.000001 -0.000001 2.980590 -2.638540 0.236854 6.456720 -0.000001 -0.000000 -3.569690 -2.007540 -0.563658 12.994200 -0.242716 4.980390 -89.882200 -0.268662 -66.365100 5.348090 -0.000007 -0.000001 -70.565500 3.326560 -1.194030 24.328600 0.000019 0.000005 5.017950 17.118800 -16.606800 22.291600 -0.000001 0.000005 22.092500 4.966340 8.027880 12.994500 -0.242716 -4.980390 87.988500 6.574140 -72.943300 -5.348130 -0.000001 -0.000004 -60.735000 -7.896100 -10.686300 -24.328900 0.000322 -0.000009 -0.021885 -7.399230 -0.160956 -22.291500 -0.000108 -0.000004 4.103840 4.953710 8.287160 -2.192480 -6.469440 -0.000000 -173.158000 -14.171700 -5.098990 39.081100 -0.000007 -0.000012 -0.314570 0.336773 43.048300 40.985400 -0.000006 -0.000013 0.795331 6.078600 -78.239800 11.754300 -0.000000 0.000003 -0.000256 -0.002279 -16.662900 -2.192510 6.469440 -0.000001 176.292000 16.025400 173.659000 -39.081100 -0.002282 -0.040193 0.040651 -0.038600 44.083300 -40.985400 0.000008 0.000006 5.090970 6.449610 -76.691600 -11.754300 -0.000006 -0.000006 -0.875366 -1.066220 -17.887500
0.000000 0.000000 0.000000 0.000000 0.000000 -0.000000 -0.513158 89.844800 1.712530 88.903700 -2.789200 6.147320 15.735700 0.000005 -0.000001 85.367200 84.856300 -85.790600 8.984550 -0.406207 -0.000000 2.485090 -0.810727 -0.828230 16.377300 -0.000001 -0.000001 6.183550 -2.733460 0.193918 6.456720 -0.000001 -0.000000 -2.012010 -2.397730 -0.701053 12.994200 -0.242716 4.980390 -89.399100 -1.309450 -65.347300 5.348090 -0.000007 -0.000001 -63.596700 -6.944220 -10.698200 24.328600 0.000019 0.000005 5.353090 13.368800 -22.074900 22.291600 -0.000001 0.000005 23.532400 4.978590 7.773070 12.994500 -0.242716 -4.980390 88.459100 4.689430 -71.784100 -5.348130 -0.000001 -0.000004 -53.428800 -18.413200 -18.026100 -24.328900 0.000322 -0.000009 -0.065925 -9.337400 -0.396929 -22.291500 -0.000108 -0.000004 6.705030 4.935290 8.669350 -2.192480 -6.469440 -0.000000 -174.525000 -12.511100 -4.733740 39.081100 -0.000007 -0.000012 -0.226139 0.322193 35.064400 40.985400 -0.000006 -0.000013 0.296834 5.488910 -73.920500 11.754300 -0.000000 0.000003 -0.000167 -0.001593 -16.637900 -2.192510 6.469440 -0.000001 176.708000 18.451900 174.270000 -39.081100 -0.002282 -0.040193 0.027859 -0.033135 36.560000 -40.985400 0.000008 0.000006 4.880610 7.799850 -72.316800 -11.754300 -0.000006 -0.000006 -0.744430 -0.901747 -18.529800
0.000000 0.000000 0.000000 0.000000 0.000000 -0.000000 -0.422571 90.938500 1.491610 88.969900 -1.834210 4.099750 15.735700 0.000005 -0.000001 83.158000 86.194600 -83.567700 8.984550 -0.406207 -0.000000 -0.212382 -0.877960 -0.820713 16.377300 -0.000001 -0.000001 8.016050 -2.962720 0.091735 6.456720 -0.000001 -0.000000 -0.751455 -2.561970 -0.919883 12.994200 -0.242716 4.980390 -89.214900 -1.729240 -65.576100 5.348090 -0.000007 -0.000001 -56.007500 -16.517900 -23.255600 24.328600 0.000019 0.000005 5.542210 9.897980 -29.450700 22.291600 -0.000001 0.000005 24.154000 5.082760 5.510060 12.994500 -0.242716 -4.980390 88.975400 3.116490 -71.793500 -5.348130 -0.000001 -0.000004 -47.690500 -30.517000 -28.972100 -24.328900 0.000322 -0.000009 -1.197360 -13.484900 -5.101710 -22.291500 -0.000108 -0.000004 10.157600 5.065480 5.922510 -2.192480 -6.469440 -0.000000 -175.534000 -10.547000 -4.598170 39.081100 -0.000007 -0.000012 -0.181820 0.318500 29.720700 40.985400 -0.000006 -0.000013 -0.139049 4.330630 -70.958000 11.754300 -0.000000 0.000003 -0.000147 -0.001431 -16.632000 -2.192510 6.469440 -0.000001 177.077000 20.233000 174.853000 -39.081100 -0.002282 -0.040193 0.017979 -0.024358 31.075800 -40.985400 0.000008 0.000006 4.644700 8.896680 -69.848500 -11.754300 -0.000006 -0.000006 -0.482917 -0.595865 -18.385300
0.000000 0.000000 0.000000 0.000000 0.000000 -0.000000 -0.393167 91.301500 1.300290 89.069500 -1.526020 3.435250 15.735700 0.000005 -0.000001 80.013800 86.644600 -80.391200 8.984550 -0.406207 -0.000000 -1.160480 -1.134100 -0.765884 16.377300 -0.000001 -0.000001 8.233760 -2.793150 -0.131005 6.456720 -0.000001 -0.000000 -0.368107 -2.467520 -1.123040 12.994200 -0.242716 4.980390 -88.973800 -2.394680 -66.791700 5.348090 -0.000007 -0.000001 -47.066200 -26.587000 -34.976100 24.328600 0.000019 0.000005 6.183820 7.771570 -38.712000 22.291600 -0.000001 0.000005 25.509800 5.224640 2.107160 12.994500 -0.242716 -4.980390 89.717800 0.923269 -73.032700 -5.348130 -0.000001 -0.000004 -44.697400 -41.013100 -40.694500 -24.328900 0.000322 -0.000009 -7.274510 -21.649800 -19.031900 -22.291500 -0.000108 -0.000004 12.513800 5.418250 -3.422860 -2.192480 -6.469440 -0.000000 -175.871000 -10.117300 -4.493120 39.081100 -0.000007 -0.000012 -0.163946 0.311814 27.734700 40.985400 -0.000006 -0.000013 -0.208149 4.184360 -69.792200 11.754300 -0.000000 0.000003 -0.000160 -0.001537 -16.635900 -2.192510 6.469440 -0.000001 177.187000 20.875500 175.828000 -39.081100 -0.002282 -0.040193 0.013715 -0.019640 27.923200 -40.985400 0.000008 0.000006 4.759510 9.202770 -69.800900 -11.754300 -0.000006 -0.000006 -0.002308 -0.032510 -17.895100
0.000000 0.000000 0.000000 0.000000 0.000000 -0.000000 -0.435152 91.372700 1.149150 89.196400 -1.578970 3.622710 15.735700 0.000005 -0.000001 78.151400 86.404900 -78.504300 8.984550 -0.406207 -0.000000 -0.733327 -1.449870 -0.714745 16.377300 -0.000001 -0.000001 6.917790 -2.515600 -0.155494 6.456720 -0.000001 -0.000000 -0.733772 -1.960250 -1.344710 12.994200 -0.242716 4.980390 -88.121700 -4.640580 -67.930800 5.348090 -0.000007 -0.000001 -38.406400 -37.878200 -43.501900 24.328600 0.000019 0.000005 10.740600 9.431560 -49.139900 22.291600 -0.000001 0.000005 30.990200 5.239580 1.671350 12.994500 -0.242716 -4.980390 90.477800 -1.609300 -73.465200 -5.348130 -0.000001 -0.000004 -38.507600 -47.633100 -49.155800 -24.328900 0.000322 -0.000009 -12.556300 -15.821700 -39.354300 -22.291500 -0.000108 -0.000004 20.410900 5.610230 -11.692100 -2.192480 -6.469440 -0.000000 -175.767000 -11.141600 -4.159120 39.081100 -0.000007 -0.000012 -0.156662 0.303524 27.300400 40.985400 -0.000006 -0.000013 -0.011536 5.208050 -69.462800 11.754300 -0.000000 0.000003 -0.000181 -0.001700 -16.641900 -2.192510 6.469440 -0.000001 176.637000 21.698100 176.798000 -39.081100 -0.002282 -0.040193 -0.066303 0.139170 26.573800 -40.985400 0.000008 0.000006 3.335980 10.540900 -69.640500 -11.754300 -0.000006 -0.000006 -0.002182 -0.030971 -17.832500
0.000000 0.000000 0.000000 0.000000 0.000000 -0.000000 -0.472844 91.598300 0.850838 89.234700 -1.331700 3.120420 15.735700 0.000005 -0.000001 77.030600 86.364600 -77.264600 8.984550 -0.406207 -0.000000 -0.683896 -1.614200 -0.477468 16.377300 -0.000001 -0.000001 5.261160 -2.646170 -0.043187 6.456720 -0.000001 -0.000000 -0.283197 -1.520080 -1.857470 12.994200 -0.242716 4.980390 -86.488100 -8.381060 -67.173700 5.348090 -0.000007 -0.000001 -33.976500 -47.093900 -51.349400 24.328600 0.000019 0.000005 17.304300 11.368200 -57.677500 22.291600 -0.000001 0.000005 41.630000 5.193690 2.892050 12.994500 -0.242716 -4.980390 91.540300 -4.564280 -71.347600 -5.348130 -0.000001 -0.000004 -32.276500 -53.793300 -57.134000 -24.328900 0.000322 -0.000009 -6.961010 -4.958160 -54.729100 -22.291500 -0.000108 -0.000004 28.999500 5.664630 -16.242500 -2.192480 -6.469440 -0.000000 -175.801000 -11.744100 -4.306530 39.081100 -0.000007 -0.000012 -0.145771 0.297704 26.088900 40.985400 -0.000006 -0.000013 0.114329 6.067590 -68.607900 11.754300 -0.000000 0.000003 -0.000184 -0.001725 -16.642800 -2.192510 6.469440 -0.000001 176.531000 23.676400 176.820000 -39.081100 -0.002282 -0.040193 -0.070642 0.156530 25.288700 -40.985400 0.000008 0.000006 3.324950 12.373400 -68.823400 -11.754300 -0.000006 -0.000006 -0.002065 -0.029531 -17.773900
